<?xml version="1.0" encoding="UTF-8" standalone="no"?>
<!-- Created with Inkscape (http://www.inkscape.org/) -->

<svg
   width="210mm"
   height="297mm"
   viewBox="0 0 210 297"
   version="1.1"
   id="svg1"
   inkscape:version="1.3 (0e150ed6c4, 2023-07-21)"
   sodipodi:docname="OLxA_logo_optimo.svg"
   inkscape:export-filename="OLxA_logo_optimo.png"
   inkscape:export-xdpi="96"
   inkscape:export-ydpi="96"
   xmlns:inkscape="http://www.inkscape.org/namespaces/inkscape"
   xmlns:sodipodi="http://sodipodi.sourceforge.net/DTD/sodipodi-0.dtd"
   xmlns="http://www.w3.org/2000/svg"
   xmlns:svg="http://www.w3.org/2000/svg">
  <sodipodi:namedview
     id="namedview1"
     pagecolor="#ffffff"
     bordercolor="#000000"
     borderopacity="0.25"
     inkscape:showpageshadow="2"
     inkscape:pageopacity="0.0"
     inkscape:pagecheckerboard="0"
     inkscape:deskcolor="#d1d1d1"
     inkscape:document-units="mm"
     inkscape:zoom="1"
     inkscape:cx="282"
     inkscape:cy="786.5"
     inkscape:window-width="1920"
     inkscape:window-height="1017"
     inkscape:window-x="-8"
     inkscape:window-y="-8"
     inkscape:window-maximized="1"
     inkscape:current-layer="layer1" />
  <defs
     id="defs1" />
  <g
     inkscape:label="Слой 1"
     inkscape:groupmode="layer"
     id="layer1">
    <path
       id="path1"
       style="fill:none;stroke:#817e65;stroke-width:4.5;stroke-linecap:round;stroke-linejoin:bevel;stroke-dasharray:none;stroke-opacity:1;paint-order:fill markers stroke"
       d="m 76.839078,234.75876 -37.215027,4e-5 c -4.315783,0 -5.228757,0.55163 -4.763968,-3.03965 l 7.934169,-61.30493"
       sodipodi:nodetypes="cssc"
       inkscape:export-filename="path1.png"
       inkscape:export-xdpi="300"
       inkscape:export-ydpi="300" />
    <path
       id="path1-1"
       style="fill:none;stroke:#817e65;stroke-width:2.25;stroke-linecap:round;stroke-linejoin:bevel;stroke-dasharray:none;stroke-opacity:1;paint-order:fill markers stroke"
       d="m 47.773789,169.35163 33.879979,-3e-5 c 3.929017,0 4.760172,-0.51473 4.337034,2.83632 l -7.223134,57.20403"
       sodipodi:nodetypes="cssc" />
    <path
       id="path1-1-6"
       style="fill:none;stroke:#817e65;stroke-width:2.25;stroke-linecap:round;stroke-linejoin:bevel;stroke-dasharray:none;stroke-opacity:1;paint-order:fill markers stroke"
       d="m 96.803973,189.29724 3.176156,5.8834 c 1.866471,3.45738 2.086491,3.47244 -0.350727,5.81093 l -5.572572,5.34684"
       sodipodi:nodetypes="cssc" />
    <rect
       style="fill:none;stroke:#817e65;stroke-width:4.51872643;stroke-linejoin:bevel;stroke-dasharray:none;stroke-opacity:1;paint-order:fill markers stroke"
       id="rect1-3"
       width="58.902027"
       height="82.060722"
       x="-115.84472"
       y="-244.59113"
       ry="6.7899375"
       transform="matrix(-1,0,0.12835092,-0.99172881,0,0)" />
    <path
       style="fill:none;stroke:#817e65;stroke-width:4.5;stroke-linecap:round;stroke-linejoin:round;stroke-dasharray:none;paint-order:fill markers stroke;stroke-opacity:1"
       d="m 93.927082,173.56666 26.458338,47.88959"
       id="path2"
       sodipodi:nodetypes="cc" />
    <path
       style="fill:none;stroke:#817e65;stroke-width:4.5;stroke-linecap:round;stroke-linejoin:round;stroke-dasharray:none;paint-order:fill markers stroke;stroke-opacity:1"
       d="M 88.635416,218.01667 107.68542,200.28958"
       id="path3"
       sodipodi:nodetypes="cc" />
    <path
       style="fill:none;stroke:#817e65;stroke-width:2.25;stroke-linecap:round;stroke-linejoin:round;stroke-dasharray:none;paint-order:fill markers stroke;stroke-opacity:1"
       d="m 107.34334,208.16563 7.54728,14.27146"
       id="path4"
       sodipodi:nodetypes="cc" />
    <g
       id="g4"
       transform="matrix(1,0,-0.13486793,1,3.2819543,89.958333)"
       style="stroke:#817e65;stroke-opacity:1;fill:#817e65;fill-opacity:1">
      <path
         d="m 58.748693,130.92295 c 2.291601,0.28612 4.866394,1.83813 7.021158,2.11213 2.166352,0.28597 2.836742,-1.54234 2.836742,-1.54234 0,0 2.437818,-0.56979 5.000748,-0.6354 2.565414,-0.0751 4.993851,0.55781 4.993851,0.55781 0,0 0.470929,1.12759 1.350021,1.61993 0.879092,0.50185 2.771773,0.56978 3.984818,-0.76634 1.215392,-1.34579 4.45809,-3.04099 6.278903,-4.10066 1.832396,-1.06212 1.496098,-2.68191 0.345676,-3.17424 -1.15042,-0.49219 -2.092137,-1.2682 -2.020273,-2.75719 0.06262,-1.47672 -1.015931,-2.46125 -1.015931,-2.46125 0,0 0.944067,-3.24938 0.06497,-5.94108 -0.879092,-2.67946 -3.778458,-6.98864 -6.007435,-10.22836 -2.228976,-3.24937 -0.336435,-7.000761 -2.365815,-11.794926 -2.029651,-4.80139 -7.292485,-4.517578 -10.129227,-2.471072 -2.836741,2.046655 -1.967028,7.122041 -1.830191,9.530096 0.136837,2.395782 0.06262,4.110172 -0.199462,4.726242 -0.262086,0.62559 -2.09214,2.89779 -3.307531,4.80139 -1.213047,1.91325 -2.092278,5.8635 -2.980613,7.49308 -0.869851,1.61993 -0.262086,3.09665 -0.262086,3.09665 0,0 -0.607627,0.2182 -1.087797,1.28046 -0.470928,1.05001 -1.412646,1.55186 -3.108207,1.89393 -1.683975,0.36125 -1.683975,1.49619 -1.278017,2.76684 0.408165,1.2682 0,1.97873 -0.470928,3.59866 -0.47079,1.61965 1.885782,2.11183 4.186626,2.39564 z m 23.821177,-7.38896 c 1.203804,0.55046 2.934127,-0.21588 3.460645,-0.76634 0.524313,-0.54801 0.89537,-1.3628 0.89537,-1.3628 0,0 0.526518,0.274 0.473134,1.14446 -0.05573,0.88271 0.361819,2.14124 1.150424,2.57778 0.788605,0.43407 1.99241,1.0402 1.368504,1.64647 -0.635628,0.60627 -4.151864,2.08544 -5.202555,3.23971 -1.041447,1.1469 -2.409954,2.08544 -3.242698,1.80899 -0.84185,-0.274 -1.57721,-1.47673 -1.215252,-3.23727 0.373402,-1.75318 0.688873,-3.67624 0.635489,-4.77469 -0.05559,-1.09846 -0.262087,-2.57765 0,-2.79597 0.262086,-0.21589 0.679631,-0.11163 0.679631,-0.11163 0,0 -0.208977,2.08342 0.997308,2.63129 z M 74.7579,93.857679 c 1.159665,0 2.094486,1.202735 2.094486,2.681917 0,1.05 -0.470928,1.959401 -1.159801,2.395926 -0.173945,-0.07515 -0.354922,-0.160079 -0.554384,-0.247467 0.417546,-0.215736 0.707358,-0.766189 0.707358,-1.401594 0,-0.831663 -0.489274,-1.515527 -1.104074,-1.515527 -0.598384,0 -1.097177,0.683714 -1.097177,1.515527 0,0.303274 0.07201,0.606265 0.19022,0.843937 -0.361817,-0.152863 -0.688873,-0.283673 -0.95096,-0.387933 -0.136837,-0.3614 -0.218084,-0.768806 -0.218084,-1.20273 1.39e-4,-1.479182 0.932477,-2.682056 2.092416,-2.682056 z m -2.87164,4.621994 c 0.570659,0.104271 2.138488,0.814802 2.718527,1.03299 0.579899,0.20852 1.222288,0.596457 1.159662,0.984537 -0.07186,0.40003 -0.371057,0.40003 -1.159662,0.90204 -0.779363,0.49233 -2.481821,1.5908 -3.026961,1.66593 -0.542795,0.0752 -0.851229,-0.24502 -1.431269,-0.63539 -0.5799,-0.39774 -1.667559,-1.32646 -1.394024,-1.81866 0,0 0.85123,-0.681405 1.222427,-1.030531 0.371198,-0.361405 1.331399,-1.212531 1.9113,-1.100916 z m -2.500443,-4.195125 c 0.913854,0 1.658456,1.137261 1.658456,2.538849 0,0.254672 -0.02787,0.492193 -0.07187,0.729854 -0.227326,0.07515 -0.454514,0.19887 -0.672735,0.397745 -0.106627,0.09464 -0.206496,0.179402 -0.296847,0.273995 0.143733,-0.283662 0.199461,-0.691063 0.134492,-1.117932 -0.12525,-0.756532 -0.614663,-1.316651 -1.094832,-1.241521 -0.482515,0.085 -0.770121,0.778457 -0.654113,1.544806 0.127594,0.776 0.607626,1.33597 1.097039,1.251183 0.02787,-0.0096 0.05338,-0.01938 0.08125,-0.02912 -0.234223,0.237671 -0.452306,0.446192 -0.679632,0.615937 -0.66101,-0.322608 -1.150422,-1.287661 -1.150422,-2.424927 1.38e-4,-1.411255 0.733015,-2.538849 1.649214,-2.538849 z m -5.091236,18.347032 c 0.941718,-1.55186 1.549344,-4.94443 2.491063,-6.07203 0.951097,-1.12513 1.683974,-3.52336 1.350021,-4.58304 0,0 2.029515,2.53885 3.442161,2.12179 1.414853,-0.42686 4.594929,-2.89779 5.065718,-2.47337 0.470929,0.42672 4.520715,9.73846 4.928882,12.70417 0.408302,2.96326 -0.271328,5.22825 -0.271328,5.22825 0,0 -1.549346,-0.42686 -1.748946,0.55767 -0.199461,0.99419 -0.199461,4.5953 -0.199461,4.5953 0,0 -2.094486,3.03119 -5.337185,3.53304 -3.2427,0.49234 -4.866395,0.1334 -4.866395,0.1334 L 67.3283,126.19671 c 0,0 1.414991,-0.21819 1.215392,-1.70473 -0.199462,-1.47673 -4.323599,-3.52351 -5.065856,-5.36164 -0.74198,-1.83812 -0.13656,-4.94444 0.816745,-6.49876 z m -8.018467,11.12074 c 0.162355,-0.7274 2.263737,-0.7274 3.070963,-1.23906 0.807227,-0.51167 0.969445,-1.98118 1.621351,-2.36911 0.642387,-0.39774 1.830052,1.01366 2.319465,1.80884 0.480169,0.77601 2.319603,4.16858 3.071101,5.01236 0.760741,0.85114 1.458994,1.97873 1.240911,2.99239 -0.206359,1.01353 -1.349884,1.75319 -1.349884,1.75319 -1.022826,0.32981 -3.875845,-0.95785 -5.172345,-1.52534 -1.296501,-0.56977 -4.594927,-0.73965 -5.019369,-1.24151 -0.43603,-0.51166 0.208703,-1.63925 0.380301,-2.70872 0.152975,-1.08144 -0.327057,-1.75319 -0.162494,-2.48304 z"
         id="path1-6"
         style="stroke-width:0.141041;stroke:#817e65;stroke-opacity:1;fill:#817e65;fill-opacity:1" />
    </g>
  </g>
</svg>
