<?xml version="1.0" encoding="UTF-8"?>
<!-- Created with Inkscape (http://www.inkscape.org/) -->
<svg width="210mm" height="297mm" version="1.1" viewBox="0 0 210 297" xmlns="http://www.w3.org/2000/svg">
 <g stroke="#b4a969">
  <g fill="none">
   <g stroke-linecap="round" stroke-linejoin="bevel">
    <path d="m76.839 234.76-37.215 4e-5c-4.3158 0-5.2288 0.55163-4.764-3.0396l7.9342-61.305" stroke-width="4.5" style="paint-order:fill markers stroke"/>
    <path d="m47.774 169.35 33.88-3e-5c3.929 0 4.7602-0.51473 4.337 2.8363l-7.2231 57.204" stroke-width="2.25" style="paint-order:fill markers stroke"/>
    <path d="m96.804 189.3 3.1762 5.8834c1.8665 3.4574 2.0865 3.4724-0.35073 5.8109l-5.5726 5.3468" stroke-width="2.25" style="paint-order:fill markers stroke"/>
   </g>
   <rect transform="matrix(-1 0 .12835 -.99173 0 0)" x="-115.84" y="-244.59" width="58.902" height="82.061" ry="6.7899" stroke-linejoin="bevel" stroke-width="4.5187" style="paint-order:fill markers stroke"/>
   <g stroke-linecap="round" stroke-linejoin="round">
    <path d="m93.927 173.57 26.458 47.89" stroke-width="4.5" style="paint-order:fill markers stroke"/>
    <path d="m88.635 218.02 19.05-17.727" stroke-width="4.5" style="paint-order:fill markers stroke"/>
    <path d="m107.34 208.17 7.5473 14.271" stroke-width="2.25" style="paint-order:fill markers stroke"/>
   </g>
  </g>
  <g transform="matrix(1 0 -.13487 1 3.282 89.958)" fill="#b4a969">
   <path d="m58.749 130.92c2.2916 0.28612 4.8664 1.8381 7.0212 2.1121 2.1664 0.28597 2.8367-1.5423 2.8367-1.5423s2.4378-0.56979 5.0007-0.6354c2.5654-0.0751 4.9939 0.55781 4.9939 0.55781s0.47093 1.1276 1.35 1.6199c0.87909 0.50185 2.7718 0.56978 3.9848-0.76634 1.2154-1.3458 4.4581-3.041 6.2789-4.1007 1.8324-1.0621 1.4961-2.6819 0.34568-3.1742-1.1504-0.49219-2.0921-1.2682-2.0203-2.7572 0.06262-1.4767-1.0159-2.4612-1.0159-2.4612s0.94407-3.2494 0.06497-5.9411c-0.87909-2.6795-3.7785-6.9886-6.0074-10.228-2.229-3.2494-0.33644-7.0008-2.3658-11.795-2.0297-4.8014-7.2925-4.5176-10.129-2.4711-2.8367 2.0467-1.967 7.122-1.8302 9.5301 0.13684 2.3958 0.06262 4.1102-0.19946 4.7262-0.26209 0.62559-2.0921 2.8978-3.3075 4.8014-1.213 1.9132-2.0923 5.8635-2.9806 7.4931-0.86985 1.6199-0.26209 3.0966-0.26209 3.0966s-0.60763 0.2182-1.0878 1.2805c-0.47093 1.05-1.4126 1.5519-3.1082 1.8939-1.684 0.36125-1.684 1.4962-1.278 2.7668 0.40816 1.2682 0 1.9787-0.47093 3.5987-0.47079 1.6196 1.8858 2.1118 4.1866 2.3956zm23.821-7.389c1.2038 0.55046 2.9341-0.21588 3.4606-0.76634 0.52431-0.54801 0.89537-1.3628 0.89537-1.3628s0.52652 0.274 0.47313 1.1445c-0.05573 0.88271 0.36182 2.1412 1.1504 2.5778 0.7886 0.43407 1.9924 1.0402 1.3685 1.6465-0.63563 0.60627-4.1519 2.0854-5.2026 3.2397-1.0414 1.1469-2.41 2.0854-3.2427 1.809-0.84185-0.274-1.5772-1.4767-1.2153-3.2373 0.3734-1.7532 0.68887-3.6762 0.63549-4.7747-0.05559-1.0985-0.26209-2.5776 0-2.796 0.26209-0.21589 0.67963-0.11163 0.67963-0.11163s-0.20898 2.0834 0.99731 2.6313zm-7.812-29.676c1.1597 0 2.0945 1.2027 2.0945 2.6819 0 1.05-0.47093 1.9594-1.1598 2.3959-0.17394-0.07515-0.35492-0.16008-0.55438-0.24747 0.41755-0.21574 0.70736-0.76619 0.70736-1.4016 0-0.83166-0.48927-1.5155-1.1041-1.5155-0.59838 0-1.0972 0.68371-1.0972 1.5155 0 0.30327 0.07201 0.60626 0.19022 0.84394-0.36182-0.15286-0.68887-0.28367-0.95096-0.38793-0.13684-0.3614-0.21808-0.76881-0.21808-1.2027 1.39e-4 -1.4792 0.93248-2.6821 2.0924-2.6821zm-2.8716 4.622c0.57066 0.10427 2.1385 0.8148 2.7185 1.033 0.5799 0.20852 1.2223 0.59646 1.1597 0.98454-0.07186 0.40003-0.37106 0.40003-1.1597 0.90204-0.77936 0.49233-2.4818 1.5908-3.027 1.6659-0.5428 0.0752-0.85123-0.24502-1.4313-0.63539-0.5799-0.39774-1.6676-1.3265-1.394-1.8187 0 0 0.85123-0.6814 1.2224-1.0305 0.3712-0.3614 1.3314-1.2125 1.9113-1.1009zm-2.5004-4.1951c0.91385 0 1.6585 1.1373 1.6585 2.5388 0 0.25467-0.02787 0.49219-0.07187 0.72985-0.22733 0.07515-0.45451 0.19887-0.67274 0.39774-0.10663 0.09464-0.2065 0.1794-0.29685 0.274 0.14373-0.28366 0.19946-0.69106 0.13449-1.1179-0.12525-0.75653-0.61466-1.3167-1.0948-1.2415-0.48252 0.085-0.77012 0.77846-0.65411 1.5448 0.12759 0.776 0.60763 1.336 1.097 1.2512 0.02787-0.0096 0.05338-0.01938 0.08125-0.02912-0.23422 0.23767-0.45231 0.44619-0.67963 0.61594-0.66101-0.32261-1.1504-1.2877-1.1504-2.4249 1.38e-4 -1.4113 0.73302-2.5388 1.6492-2.5388zm-5.0912 18.347c0.94172-1.5519 1.5493-4.9444 2.4911-6.072 0.9511-1.1251 1.684-3.5234 1.35-4.583 0 0 2.0295 2.5388 3.4422 2.1218 1.4149-0.42686 4.5949-2.8978 5.0657-2.4734 0.47093 0.42672 4.5207 9.7385 4.9289 12.704 0.4083 2.9633-0.27133 5.2282-0.27133 5.2282s-1.5493-0.42686-1.7489 0.55767c-0.19946 0.99419-0.19946 4.5953-0.19946 4.5953s-2.0945 3.0312-5.3372 3.533c-3.2427 0.49234-4.8664 0.1334-4.8664 0.1334l-1.8208-2.18s1.415-0.21819 1.2154-1.7047c-0.19946-1.4767-4.3236-3.5235-5.0659-5.3616-0.74198-1.8381-0.13656-4.9444 0.81674-6.4988zm-8.0185 11.121c0.16236-0.7274 2.2637-0.7274 3.071-1.2391 0.80723-0.51167 0.96944-1.9812 1.6214-2.3691 0.64239-0.39774 1.8301 1.0137 2.3195 1.8088 0.48017 0.77601 2.3196 4.1686 3.0711 5.0124 0.76074 0.85114 1.459 1.9787 1.2409 2.9924-0.20636 1.0135-1.3499 1.7532-1.3499 1.7532-1.0228 0.32981-3.8758-0.95785-5.1723-1.5253-1.2965-0.56977-4.5949-0.73965-5.0194-1.2415-0.43603-0.51166 0.2087-1.6392 0.3803-2.7087 0.15298-1.0814-0.32706-1.7532-0.16249-2.483z" fill="#b4a969" stroke="#b4a969" stroke-width=".14104"/>
  </g>
 </g>
</svg>
